<?xml version="1.0" encoding="utf-8"?>
<!-- Generator: Adobe Illustrator 22.1.0, SVG Export Plug-In . SVG Version: 6.00 Build 0)  -->
<svg version="1.1" id="Capa_1" xmlns="http://www.w3.org/2000/svg" xmlns:xlink="http://www.w3.org/1999/xlink" x="0px" y="0px"
	 viewBox="0 0 455.7 455.7" style="enable-background:new 0 0 455.7 455.7;" xml:space="preserve">
<style type="text/css">
	.st0{fill:#FFFFFF;stroke:#000000;stroke-miterlimit:10;}
	.st1{fill:#DC472E;}
	.st2{fill:#FFFFFF;}
</style>
<rect x="59" y="26" class="st0" width="337" height="405"/>
<g>
	<rect class="st1" width="455.7" height="455.7"/>
	<g>
		<path class="st2" d="M263.3,291.7c0-1.7-0.5-3.5-1.1-5.1c-0.8-2.1-2.6-3.1-4.9-3.4c-2.6-0.3-4.8,0.8-6.7,2.5
			c-0.8,0.7-1.1,1.7-1.1,1.7l0,54v1.3c0,0,0.5,0.6,0.5,0.7c1.6,1.7,3.4,3,5.7,3.5c3.8,0.8,6.5-0.8,7.3-4.4c0.2-0.9,0.3-1.8,0.3-2.7
			C263.3,323.9,263.3,307.8,263.3,291.7z M263.3,291.7c0-1.7-0.5-3.5-1.1-5.1c-0.8-2.1-2.6-3.1-4.9-3.4c-2.6-0.3-4.8,0.8-6.7,2.5
			c-0.8,0.7-1.1,1.7-1.1,1.7l0,54v1.3c0,0,0.5,0.6,0.5,0.7c1.6,1.7,3.4,3,5.7,3.5c3.8,0.8,6.5-0.8,7.3-4.4c0.2-0.9,0.3-1.8,0.3-2.7
			C263.3,323.9,263.3,307.8,263.3,291.7z M323.7,210.3c-63.9-1.4-127.8-1.4-191.6,0c-22.2,0.5-39.9,18.6-39.9,40.8v99.8
			c0,22.2,17.7,40.3,39.9,40.8c63.9,1.4,127.8,1.4,191.6,0c22.2-0.5,39.9-18.6,39.9-40.8v-99.8C363.6,228.9,345.9,210.8,323.7,210.3
			z M150.8,360h-18.4V255.8h-19.1v-17.4h56.6v17.4h-19.1V360z M216.7,316.7V360h-16.3v-9.9c-0.6,0.6-0.9,1-1.2,1.3
			c-3.5,4-7.5,7.3-12.6,9c-2.5,0.9-5,1.1-7.6,0.7c-3.6-0.6-5.9-2.6-7.4-5.9c-1.3-3-1.7-6.2-1.7-9.4c0-11.9,0-74.9,0-75.5h16.3
			c0,0.5,0.1,45.8,0.1,67.8c0,1.2,0,2.4,0.3,3.6c0.6,3,2.9,4.2,5.7,3.2c3.3-1.2,5.8-3.5,7.9-6.2c0.3-0.4,0.3-1.1,0.3-1.6v-66.9
			l16.3,0C216.7,270.2,216.7,301.8,216.7,316.7z M278.8,351.3c-2.2,6.6-7,9.9-13.9,9.8c-5.6,0-10.2-2.3-13.9-6.4
			c-0.4-0.5-1.6-1.7-1.6-1.7v6.8h-16.3V238.4h16.3c0,12.9,0,40,0,40s0.9-1.8,1.8-2.8c2.5-2.8,5.6-5,9.4-6c6.3-1.6,13.5,0.4,16.9,7.7
			c2,4.3,2.6,9,2.6,13.6c0,17,0,34,0,51C280.1,345.1,279.8,348.3,278.8,351.3z M339.1,347.9c-2.8,8.3-8.7,12.9-17.3,14.1
			c-5.3,0.8-10.6,0.7-15.6-1.6c-6.8-3.1-10.7-8.6-12.4-15.7c-0.8-3.3-1.1-6.8-1.2-10.1c-0.1-13.3-0.1-26.6,0-39.9
			c0-7,1.7-13.4,6.4-18.7c5.4-6.1,12.4-8.4,20.4-7.9c2.4,0.1,4.8,0.5,7.1,1.3c7.7,2.5,11.9,8.3,13.5,16c0.6,3,0.9,6,0.9,9.1
			c0.1,7.1,0,22.8,0,22.8h-31.3v22.4c0,4,3.3,7.3,7.3,7.3c4,0,7.3-3.3,7.3-7.3v-11.5H341C341,328.1,341.2,341.7,339.1,347.9z
			 M324.2,290.7c0-4-3.3-7.3-7.3-7.3c-4,0-7.3,3.3-7.3,7.3v12.6h14.6V290.7z M262.1,286.7c-0.8-2.1-2.6-3.1-4.9-3.4
			c-2.6-0.3-4.8,0.8-6.7,2.5c-0.8,0.7-1.1,1.7-1.1,1.7l0,54v1.3c0,0,0.5,0.6,0.5,0.7c1.6,1.7,3.4,3,5.7,3.5c3.8,0.8,6.5-0.8,7.3-4.4
			c0.2-0.9,0.3-1.8,0.3-2.7c0-16.1,0-32.1,0-48.2C263.2,290,262.7,288.3,262.1,286.7z"/>
		<path class="st2" d="M303.9,95l0,90.2h-16.7l0-9.7c-1.8,1.8-3.4,3.5-5.2,5.1c-3.1,2.7-6.6,4.7-10.6,5.5
			c-6.3,1.2-11.6-0.8-13.6-7.2c-0.7-2.2-1.1-4.5-1.1-6.7V95h16.6v68.8c0,0.9,0.1,1.8,0.2,2.7c0.5,2.8,2.6,4.2,5.3,3.2
			c3.3-1.2,5.9-3.5,8-6.2c0.3-0.4,0.3-1.1,0.3-1.7V95H303.9z"/>
		<path class="st2" d="M165.6,110.7c-3.6-15.3-11.2-47.6-11.2-47.6h-19c0,0,14.6,48.5,21.2,70.1c0.2,0.8,0.3,1.6,0.3,2.4l0,49.6
			h17.5l0-49.6c0-0.8,0.1-1.7,0.3-2.4c6.5-21.6,21.2-70.1,21.2-70.1h-19C176.8,63.1,169.2,95.4,165.6,110.7L165.6,110.7z"/>
		<path class="st2" d="M218.8,92.7L218.8,92.7c-13.2,0-23.9,10.7-23.9,23.9v46.9c0,13.2,10.7,23.9,23.9,23.9l0,0
			c13.2,0,23.9-10.7,23.9-23.9v-46.9C242.7,103.5,232,92.7,218.8,92.7z M225.7,164.5c0,3.8-3.1,6.9-6.9,6.9s-6.9-3.1-6.9-6.9v-48.8
			c0-3.8,3.1-6.9,6.9-6.9s6.9,3.1,6.9,6.9V164.5z"/>
	</g>
</g>
</svg>
